solid ASCII
  facet normal 9.978589e-01 6.540313e-02 0.000000e+00
    outer loop
      vertex   1.002139e+01 1.217368e+01 2.000000e+00
      vertex   1.002139e+01 1.217368e+01 0.000000e+00
      vertex   1.000000e+01 1.250000e+01 2.000000e+00
    endloop
  endfacet
  facet normal 9.978589e-01 6.540313e-02 0.000000e+00
    outer loop
      vertex   1.000000e+01 1.250000e+01 2.000000e+00
      vertex   1.002139e+01 1.217368e+01 0.000000e+00
      vertex   1.000000e+01 1.250000e+01 0.000000e+00
    endloop
  endfacet
  facet normal 9.978589e-01 -6.540313e-02 0.000000e+00
    outer loop
      vertex   1.000000e+01 1.250000e+01 2.000000e+00
      vertex   1.000000e+01 1.250000e+01 0.000000e+00
      vertex   1.002139e+01 1.282632e+01 2.000000e+00
    endloop
  endfacet
  facet normal 9.978589e-01 -6.540313e-02 0.000000e+00
    outer loop
      vertex   1.002139e+01 1.282632e+01 2.000000e+00
      vertex   1.000000e+01 1.250000e+01 0.000000e+00
      vertex   1.002139e+01 1.282632e+01 0.000000e+00
    endloop
  endfacet
  facet normal 9.807853e-01 -1.950903e-01 0.000000e+00
    outer loop
      vertex   1.002139e+01 1.282632e+01 2.000000e+00
      vertex   1.002139e+01 1.282632e+01 0.000000e+00
      vertex   1.008519e+01 1.314705e+01 2.000000e+00
    endloop
  endfacet
  facet normal 9.807853e-01 -1.950903e-01 0.000000e+00
    outer loop
      vertex   1.008519e+01 1.314705e+01 2.000000e+00
      vertex   1.002139e+01 1.282632e+01 0.000000e+00
      vertex   1.008519e+01 1.314705e+01 0.000000e+00
    endloop
  endfacet
  facet normal 9.469301e-01 -3.214395e-01 0.000000e+00
    outer loop
      vertex   1.008519e+01 1.314705e+01 2.000000e+00
      vertex   1.008519e+01 1.314705e+01 0.000000e+00
      vertex   1.019030e+01 1.345671e+01 2.000000e+00
    endloop
  endfacet
  facet normal 9.469301e-01 -3.214395e-01 0.000000e+00
    outer loop
      vertex   1.019030e+01 1.345671e+01 2.000000e+00
      vertex   1.008519e+01 1.314705e+01 0.000000e+00
      vertex   1.019030e+01 1.345671e+01 0.000000e+00
    endloop
  endfacet
  facet normal 8.968727e-01 -4.422887e-01 0.000000e+00
    outer loop
      vertex   1.019030e+01 1.345671e+01 2.000000e+00
      vertex   1.019030e+01 1.345671e+01 0.000000e+00
      vertex   1.033494e+01 1.375000e+01 2.000000e+00
    endloop
  endfacet
  facet normal 8.968727e-01 -4.422887e-01 0.000000e+00
    outer loop
      vertex   1.033494e+01 1.375000e+01 2.000000e+00
      vertex   1.019030e+01 1.345671e+01 0.000000e+00
      vertex   1.033494e+01 1.375000e+01 0.000000e+00
    endloop
  endfacet
  facet normal 8.314696e-01 -5.555702e-01 0.000000e+00
    outer loop
      vertex   1.033494e+01 1.375000e+01 2.000000e+00
      vertex   1.033494e+01 1.375000e+01 0.000000e+00
      vertex   1.051662e+01 1.402190e+01 2.000000e+00
    endloop
  endfacet
  facet normal 8.314696e-01 -5.555702e-01 0.000000e+00
    outer loop
      vertex   1.051662e+01 1.402190e+01 2.000000e+00
      vertex   1.033494e+01 1.375000e+01 0.000000e+00
      vertex   1.051662e+01 1.402190e+01 0.000000e+00
    endloop
  endfacet
  facet normal 7.518398e-01 -6.593458e-01 0.000000e+00
    outer loop
      vertex   1.051662e+01 1.402190e+01 2.000000e+00
      vertex   1.051662e+01 1.402190e+01 0.000000e+00
      vertex   1.073223e+01 1.426777e+01 2.000000e+00
    endloop
  endfacet
  facet normal 7.518398e-01 -6.593458e-01 0.000000e+00
    outer loop
      vertex   1.073223e+01 1.426777e+01 2.000000e+00
      vertex   1.051662e+01 1.402190e+01 0.000000e+00
      vertex   1.073223e+01 1.426777e+01 0.000000e+00
    endloop
  endfacet
  facet normal 6.593458e-01 -7.518398e-01 0.000000e+00
    outer loop
      vertex   1.073223e+01 1.426777e+01 2.000000e+00
      vertex   1.073223e+01 1.426777e+01 0.000000e+00
      vertex   1.097810e+01 1.448338e+01 2.000000e+00
    endloop
  endfacet
  facet normal 6.593458e-01 -7.518398e-01 0.000000e+00
    outer loop
      vertex   1.097810e+01 1.448338e+01 2.000000e+00
      vertex   1.073223e+01 1.426777e+01 0.000000e+00
      vertex   1.097810e+01 1.448338e+01 0.000000e+00
    endloop
  endfacet
  facet normal 5.555702e-01 -8.314696e-01 0.000000e+00
    outer loop
      vertex   1.097810e+01 1.448338e+01 2.000000e+00
      vertex   1.097810e+01 1.448338e+01 0.000000e+00
      vertex   1.125000e+01 1.466506e+01 2.000000e+00
    endloop
  endfacet
  facet normal 5.555702e-01 -8.314696e-01 0.000000e+00
    outer loop
      vertex   1.125000e+01 1.466506e+01 2.000000e+00
      vertex   1.097810e+01 1.448338e+01 0.000000e+00
      vertex   1.125000e+01 1.466506e+01 0.000000e+00
    endloop
  endfacet
  facet normal 4.422887e-01 -8.968727e-01 0.000000e+00
    outer loop
      vertex   1.125000e+01 1.466506e+01 2.000000e+00
      vertex   1.125000e+01 1.466506e+01 0.000000e+00
      vertex   1.154329e+01 1.480970e+01 2.000000e+00
    endloop
  endfacet
  facet normal 4.422887e-01 -8.968727e-01 0.000000e+00
    outer loop
      vertex   1.154329e+01 1.480970e+01 2.000000e+00
      vertex   1.125000e+01 1.466506e+01 0.000000e+00
      vertex   1.154329e+01 1.480970e+01 0.000000e+00
    endloop
  endfacet
  facet normal 3.214395e-01 -9.469301e-01 0.000000e+00
    outer loop
      vertex   1.154329e+01 1.480970e+01 2.000000e+00
      vertex   1.154329e+01 1.480970e+01 0.000000e+00
      vertex   1.185295e+01 1.491481e+01 2.000000e+00
    endloop
  endfacet
  facet normal 3.214395e-01 -9.469301e-01 0.000000e+00
    outer loop
      vertex   1.185295e+01 1.491481e+01 2.000000e+00
      vertex   1.154329e+01 1.480970e+01 0.000000e+00
      vertex   1.185295e+01 1.491481e+01 0.000000e+00
    endloop
  endfacet
  facet normal 1.950903e-01 -9.807853e-01 0.000000e+00
    outer loop
      vertex   1.185295e+01 1.491481e+01 2.000000e+00
      vertex   1.185295e+01 1.491481e+01 0.000000e+00
      vertex   1.217368e+01 1.497861e+01 2.000000e+00
    endloop
  endfacet
  facet normal 1.950903e-01 -9.807853e-01 0.000000e+00
    outer loop
      vertex   1.217368e+01 1.497861e+01 2.000000e+00
      vertex   1.185295e+01 1.491481e+01 0.000000e+00
      vertex   1.217368e+01 1.497861e+01 0.000000e+00
    endloop
  endfacet
  facet normal 6.540313e-02 -9.978589e-01 0.000000e+00
    outer loop
      vertex   1.217368e+01 1.497861e+01 2.000000e+00
      vertex   1.217368e+01 1.497861e+01 0.000000e+00
      vertex   1.250000e+01 1.500000e+01 2.000000e+00
    endloop
  endfacet
  facet normal 6.540313e-02 -9.978589e-01 0.000000e+00
    outer loop
      vertex   1.250000e+01 1.500000e+01 2.000000e+00
      vertex   1.217368e+01 1.497861e+01 0.000000e+00
      vertex   1.250000e+01 1.500000e+01 0.000000e+00
    endloop
  endfacet
  facet normal -6.540313e-02 -9.978589e-01 -0.000000e+00
    outer loop
      vertex   1.250000e+01 1.500000e+01 2.000000e+00
      vertex   1.250000e+01 1.500000e+01 0.000000e+00
      vertex   1.282632e+01 1.497861e+01 2.000000e+00
    endloop
  endfacet
  facet normal -6.540313e-02 -9.978589e-01 -0.000000e+00
    outer loop
      vertex   1.282632e+01 1.497861e+01 2.000000e+00
      vertex   1.250000e+01 1.500000e+01 0.000000e+00
      vertex   1.282632e+01 1.497861e+01 0.000000e+00
    endloop
  endfacet
  facet normal -1.950903e-01 -9.807853e-01 -0.000000e+00
    outer loop
      vertex   1.282632e+01 1.497861e+01 2.000000e+00
      vertex   1.282632e+01 1.497861e+01 0.000000e+00
      vertex   1.314705e+01 1.491481e+01 2.000000e+00
    endloop
  endfacet
  facet normal -1.950903e-01 -9.807853e-01 -0.000000e+00
    outer loop
      vertex   1.314705e+01 1.491481e+01 2.000000e+00
      vertex   1.282632e+01 1.497861e+01 0.000000e+00
      vertex   1.314705e+01 1.491481e+01 0.000000e+00
    endloop
  endfacet
  facet normal -3.214395e-01 -9.469301e-01 -0.000000e+00
    outer loop
      vertex   1.314705e+01 1.491481e+01 2.000000e+00
      vertex   1.314705e+01 1.491481e+01 0.000000e+00
      vertex   1.345671e+01 1.480970e+01 2.000000e+00
    endloop
  endfacet
  facet normal -3.214395e-01 -9.469301e-01 -0.000000e+00
    outer loop
      vertex   1.345671e+01 1.480970e+01 2.000000e+00
      vertex   1.314705e+01 1.491481e+01 0.000000e+00
      vertex   1.345671e+01 1.480970e+01 0.000000e+00
    endloop
  endfacet
  facet normal -4.422887e-01 -8.968727e-01 -0.000000e+00
    outer loop
      vertex   1.345671e+01 1.480970e+01 2.000000e+00
      vertex   1.345671e+01 1.480970e+01 0.000000e+00
      vertex   1.375000e+01 1.466506e+01 2.000000e+00
    endloop
  endfacet
  facet normal -4.422887e-01 -8.968727e-01 -0.000000e+00
    outer loop
      vertex   1.375000e+01 1.466506e+01 2.000000e+00
      vertex   1.345671e+01 1.480970e+01 0.000000e+00
      vertex   1.375000e+01 1.466506e+01 0.000000e+00
    endloop
  endfacet
  facet normal -5.555702e-01 -8.314696e-01 -0.000000e+00
    outer loop
      vertex   1.375000e+01 1.466506e+01 2.000000e+00
      vertex   1.375000e+01 1.466506e+01 0.000000e+00
      vertex   1.402190e+01 1.448338e+01 2.000000e+00
    endloop
  endfacet
  facet normal -5.555702e-01 -8.314696e-01 -0.000000e+00
    outer loop
      vertex   1.402190e+01 1.448338e+01 2.000000e+00
      vertex   1.375000e+01 1.466506e+01 0.000000e+00
      vertex   1.402190e+01 1.448338e+01 0.000000e+00
    endloop
  endfacet
  facet normal -6.593458e-01 -7.518398e-01 -0.000000e+00
    outer loop
      vertex   1.402190e+01 1.448338e+01 2.000000e+00
      vertex   1.402190e+01 1.448338e+01 0.000000e+00
      vertex   1.426777e+01 1.426777e+01 2.000000e+00
    endloop
  endfacet
  facet normal -6.593458e-01 -7.518398e-01 -0.000000e+00
    outer loop
      vertex   1.426777e+01 1.426777e+01 2.000000e+00
      vertex   1.402190e+01 1.448338e+01 0.000000e+00
      vertex   1.426777e+01 1.426777e+01 0.000000e+00
    endloop
  endfacet
  facet normal -7.518398e-01 -6.593458e-01 -0.000000e+00
    outer loop
      vertex   1.426777e+01 1.426777e+01 2.000000e+00
      vertex   1.426777e+01 1.426777e+01 0.000000e+00
      vertex   1.448338e+01 1.402190e+01 2.000000e+00
    endloop
  endfacet
  facet normal -7.518398e-01 -6.593458e-01 -0.000000e+00
    outer loop
      vertex   1.448338e+01 1.402190e+01 2.000000e+00
      vertex   1.426777e+01 1.426777e+01 0.000000e+00
      vertex   1.448338e+01 1.402190e+01 0.000000e+00
    endloop
  endfacet
  facet normal -8.314696e-01 -5.555702e-01 -0.000000e+00
    outer loop
      vertex   1.448338e+01 1.402190e+01 2.000000e+00
      vertex   1.448338e+01 1.402190e+01 0.000000e+00
      vertex   1.466506e+01 1.375000e+01 2.000000e+00
    endloop
  endfacet
  facet normal -8.314696e-01 -5.555702e-01 -0.000000e+00
    outer loop
      vertex   1.466506e+01 1.375000e+01 2.000000e+00
      vertex   1.448338e+01 1.402190e+01 0.000000e+00
      vertex   1.466506e+01 1.375000e+01 0.000000e+00
    endloop
  endfacet
  facet normal -8.968727e-01 -4.422887e-01 -0.000000e+00
    outer loop
      vertex   1.466506e+01 1.375000e+01 2.000000e+00
      vertex   1.466506e+01 1.375000e+01 0.000000e+00
      vertex   1.480970e+01 1.345671e+01 2.000000e+00
    endloop
  endfacet
  facet normal -8.968727e-01 -4.422887e-01 -0.000000e+00
    outer loop
      vertex   1.480970e+01 1.345671e+01 2.000000e+00
      vertex   1.466506e+01 1.375000e+01 0.000000e+00
      vertex   1.480970e+01 1.345671e+01 0.000000e+00
    endloop
  endfacet
  facet normal -9.469301e-01 -3.214395e-01 -0.000000e+00
    outer loop
      vertex   1.480970e+01 1.345671e+01 2.000000e+00
      vertex   1.480970e+01 1.345671e+01 0.000000e+00
      vertex   1.491481e+01 1.314705e+01 2.000000e+00
    endloop
  endfacet
  facet normal -9.469301e-01 -3.214395e-01 -0.000000e+00
    outer loop
      vertex   1.491481e+01 1.314705e+01 2.000000e+00
      vertex   1.480970e+01 1.345671e+01 0.000000e+00
      vertex   1.491481e+01 1.314705e+01 0.000000e+00
    endloop
  endfacet
  facet normal -9.807853e-01 -1.950903e-01 -0.000000e+00
    outer loop
      vertex   1.491481e+01 1.314705e+01 2.000000e+00
      vertex   1.491481e+01 1.314705e+01 0.000000e+00
      vertex   1.497861e+01 1.282632e+01 2.000000e+00
    endloop
  endfacet
  facet normal -9.807853e-01 -1.950903e-01 -0.000000e+00
    outer loop
      vertex   1.497861e+01 1.282632e+01 2.000000e+00
      vertex   1.491481e+01 1.314705e+01 0.000000e+00
      vertex   1.497861e+01 1.282632e+01 0.000000e+00
    endloop
  endfacet
  facet normal -9.978589e-01 -6.540313e-02 -0.000000e+00
    outer loop
      vertex   1.497861e+01 1.282632e+01 2.000000e+00
      vertex   1.497861e+01 1.282632e+01 0.000000e+00
      vertex   1.500000e+01 1.250000e+01 2.000000e+00
    endloop
  endfacet
  facet normal -9.978589e-01 -6.540313e-02 -0.000000e+00
    outer loop
      vertex   1.500000e+01 1.250000e+01 2.000000e+00
      vertex   1.497861e+01 1.282632e+01 0.000000e+00
      vertex   1.500000e+01 1.250000e+01 0.000000e+00
    endloop
  endfacet
  facet normal -9.978589e-01 6.540313e-02 0.000000e+00
    outer loop
      vertex   1.500000e+01 1.250000e+01 2.000000e+00
      vertex   1.500000e+01 1.250000e+01 0.000000e+00
      vertex   1.497861e+01 1.217368e+01 2.000000e+00
    endloop
  endfacet
  facet normal -9.978589e-01 6.540313e-02 0.000000e+00
    outer loop
      vertex   1.497861e+01 1.217368e+01 2.000000e+00
      vertex   1.500000e+01 1.250000e+01 0.000000e+00
      vertex   1.497861e+01 1.217368e+01 0.000000e+00
    endloop
  endfacet
  facet normal -9.807853e-01 1.950903e-01 0.000000e+00
    outer loop
      vertex   1.497861e+01 1.217368e+01 2.000000e+00
      vertex   1.497861e+01 1.217368e+01 0.000000e+00
      vertex   1.491481e+01 1.185295e+01 2.000000e+00
    endloop
  endfacet
  facet normal -9.807853e-01 1.950903e-01 0.000000e+00
    outer loop
      vertex   1.491481e+01 1.185295e+01 2.000000e+00
      vertex   1.497861e+01 1.217368e+01 0.000000e+00
      vertex   1.491481e+01 1.185295e+01 0.000000e+00
    endloop
  endfacet
  facet normal -9.469301e-01 3.214395e-01 0.000000e+00
    outer loop
      vertex   1.491481e+01 1.185295e+01 2.000000e+00
      vertex   1.491481e+01 1.185295e+01 0.000000e+00
      vertex   1.480970e+01 1.154329e+01 2.000000e+00
    endloop
  endfacet
  facet normal -9.469301e-01 3.214395e-01 0.000000e+00
    outer loop
      vertex   1.480970e+01 1.154329e+01 2.000000e+00
      vertex   1.491481e+01 1.185295e+01 0.000000e+00
      vertex   1.480970e+01 1.154329e+01 0.000000e+00
    endloop
  endfacet
  facet normal -8.968727e-01 4.422887e-01 0.000000e+00
    outer loop
      vertex   1.480970e+01 1.154329e+01 2.000000e+00
      vertex   1.480970e+01 1.154329e+01 0.000000e+00
      vertex   1.466506e+01 1.125000e+01 2.000000e+00
    endloop
  endfacet
  facet normal -8.968727e-01 4.422887e-01 0.000000e+00
    outer loop
      vertex   1.466506e+01 1.125000e+01 2.000000e+00
      vertex   1.480970e+01 1.154329e+01 0.000000e+00
      vertex   1.466506e+01 1.125000e+01 0.000000e+00
    endloop
  endfacet
  facet normal -8.314696e-01 5.555702e-01 0.000000e+00
    outer loop
      vertex   1.466506e+01 1.125000e+01 2.000000e+00
      vertex   1.466506e+01 1.125000e+01 0.000000e+00
      vertex   1.448338e+01 1.097810e+01 2.000000e+00
    endloop
  endfacet
  facet normal -8.314696e-01 5.555702e-01 0.000000e+00
    outer loop
      vertex   1.448338e+01 1.097810e+01 2.000000e+00
      vertex   1.466506e+01 1.125000e+01 0.000000e+00
      vertex   1.448338e+01 1.097810e+01 0.000000e+00
    endloop
  endfacet
  facet normal -7.518398e-01 6.593458e-01 0.000000e+00
    outer loop
      vertex   1.448338e+01 1.097810e+01 2.000000e+00
      vertex   1.448338e+01 1.097810e+01 0.000000e+00
      vertex   1.426777e+01 1.073223e+01 2.000000e+00
    endloop
  endfacet
  facet normal -7.518398e-01 6.593458e-01 0.000000e+00
    outer loop
      vertex   1.426777e+01 1.073223e+01 2.000000e+00
      vertex   1.448338e+01 1.097810e+01 0.000000e+00
      vertex   1.426777e+01 1.073223e+01 0.000000e+00
    endloop
  endfacet
  facet normal -6.593458e-01 7.518398e-01 0.000000e+00
    outer loop
      vertex   1.426777e+01 1.073223e+01 2.000000e+00
      vertex   1.426777e+01 1.073223e+01 0.000000e+00
      vertex   1.402190e+01 1.051662e+01 2.000000e+00
    endloop
  endfacet
  facet normal -6.593458e-01 7.518398e-01 0.000000e+00
    outer loop
      vertex   1.402190e+01 1.051662e+01 2.000000e+00
      vertex   1.426777e+01 1.073223e+01 0.000000e+00
      vertex   1.402190e+01 1.051662e+01 0.000000e+00
    endloop
  endfacet
  facet normal -5.555702e-01 8.314696e-01 0.000000e+00
    outer loop
      vertex   1.402190e+01 1.051662e+01 2.000000e+00
      vertex   1.402190e+01 1.051662e+01 0.000000e+00
      vertex   1.375000e+01 1.033494e+01 2.000000e+00
    endloop
  endfacet
  facet normal -5.555702e-01 8.314696e-01 0.000000e+00
    outer loop
      vertex   1.375000e+01 1.033494e+01 2.000000e+00
      vertex   1.402190e+01 1.051662e+01 0.000000e+00
      vertex   1.375000e+01 1.033494e+01 0.000000e+00
    endloop
  endfacet
  facet normal -4.422887e-01 8.968727e-01 0.000000e+00
    outer loop
      vertex   1.375000e+01 1.033494e+01 2.000000e+00
      vertex   1.375000e+01 1.033494e+01 0.000000e+00
      vertex   1.345671e+01 1.019030e+01 2.000000e+00
    endloop
  endfacet
  facet normal -4.422887e-01 8.968727e-01 0.000000e+00
    outer loop
      vertex   1.345671e+01 1.019030e+01 2.000000e+00
      vertex   1.375000e+01 1.033494e+01 0.000000e+00
      vertex   1.345671e+01 1.019030e+01 0.000000e+00
    endloop
  endfacet
  facet normal -3.214395e-01 9.469301e-01 0.000000e+00
    outer loop
      vertex   1.345671e+01 1.019030e+01 2.000000e+00
      vertex   1.345671e+01 1.019030e+01 0.000000e+00
      vertex   1.314705e+01 1.008519e+01 2.000000e+00
    endloop
  endfacet
  facet normal -3.214395e-01 9.469301e-01 0.000000e+00
    outer loop
      vertex   1.314705e+01 1.008519e+01 2.000000e+00
      vertex   1.345671e+01 1.019030e+01 0.000000e+00
      vertex   1.314705e+01 1.008519e+01 0.000000e+00
    endloop
  endfacet
  facet normal -1.950903e-01 9.807853e-01 0.000000e+00
    outer loop
      vertex   1.314705e+01 1.008519e+01 2.000000e+00
      vertex   1.314705e+01 1.008519e+01 0.000000e+00
      vertex   1.282632e+01 1.002139e+01 2.000000e+00
    endloop
  endfacet
  facet normal -1.950903e-01 9.807853e-01 0.000000e+00
    outer loop
      vertex   1.282632e+01 1.002139e+01 2.000000e+00
      vertex   1.314705e+01 1.008519e+01 0.000000e+00
      vertex   1.282632e+01 1.002139e+01 0.000000e+00
    endloop
  endfacet
  facet normal -6.540313e-02 9.978589e-01 0.000000e+00
    outer loop
      vertex   1.282632e+01 1.002139e+01 2.000000e+00
      vertex   1.282632e+01 1.002139e+01 0.000000e+00
      vertex   1.250000e+01 1.000000e+01 2.000000e+00
    endloop
  endfacet
  facet normal -6.540313e-02 9.978589e-01 0.000000e+00
    outer loop
      vertex   1.250000e+01 1.000000e+01 2.000000e+00
      vertex   1.282632e+01 1.002139e+01 0.000000e+00
      vertex   1.250000e+01 1.000000e+01 0.000000e+00
    endloop
  endfacet
  facet normal 6.540313e-02 9.978589e-01 0.000000e+00
    outer loop
      vertex   1.250000e+01 1.000000e+01 2.000000e+00
      vertex   1.250000e+01 1.000000e+01 0.000000e+00
      vertex   1.217368e+01 1.002139e+01 2.000000e+00
    endloop
  endfacet
  facet normal 6.540313e-02 9.978589e-01 0.000000e+00
    outer loop
      vertex   1.217368e+01 1.002139e+01 2.000000e+00
      vertex   1.250000e+01 1.000000e+01 0.000000e+00
      vertex   1.217368e+01 1.002139e+01 0.000000e+00
    endloop
  endfacet
  facet normal 1.950903e-01 9.807853e-01 0.000000e+00
    outer loop
      vertex   1.217368e+01 1.002139e+01 2.000000e+00
      vertex   1.217368e+01 1.002139e+01 0.000000e+00
      vertex   1.185295e+01 1.008519e+01 2.000000e+00
    endloop
  endfacet
  facet normal 1.950903e-01 9.807853e-01 0.000000e+00
    outer loop
      vertex   1.185295e+01 1.008519e+01 2.000000e+00
      vertex   1.217368e+01 1.002139e+01 0.000000e+00
      vertex   1.185295e+01 1.008519e+01 0.000000e+00
    endloop
  endfacet
  facet normal 3.214395e-01 9.469301e-01 0.000000e+00
    outer loop
      vertex   1.185295e+01 1.008519e+01 2.000000e+00
      vertex   1.185295e+01 1.008519e+01 0.000000e+00
      vertex   1.154329e+01 1.019030e+01 2.000000e+00
    endloop
  endfacet
  facet normal 3.214395e-01 9.469301e-01 0.000000e+00
    outer loop
      vertex   1.154329e+01 1.019030e+01 2.000000e+00
      vertex   1.185295e+01 1.008519e+01 0.000000e+00
      vertex   1.154329e+01 1.019030e+01 0.000000e+00
    endloop
  endfacet
  facet normal 4.422887e-01 8.968727e-01 0.000000e+00
    outer loop
      vertex   1.154329e+01 1.019030e+01 2.000000e+00
      vertex   1.154329e+01 1.019030e+01 0.000000e+00
      vertex   1.125000e+01 1.033494e+01 2.000000e+00
    endloop
  endfacet
  facet normal 4.422887e-01 8.968727e-01 0.000000e+00
    outer loop
      vertex   1.125000e+01 1.033494e+01 2.000000e+00
      vertex   1.154329e+01 1.019030e+01 0.000000e+00
      vertex   1.125000e+01 1.033494e+01 0.000000e+00
    endloop
  endfacet
  facet normal 5.555702e-01 8.314696e-01 0.000000e+00
    outer loop
      vertex   1.125000e+01 1.033494e+01 2.000000e+00
      vertex   1.125000e+01 1.033494e+01 0.000000e+00
      vertex   1.097810e+01 1.051662e+01 2.000000e+00
    endloop
  endfacet
  facet normal 5.555702e-01 8.314696e-01 0.000000e+00
    outer loop
      vertex   1.097810e+01 1.051662e+01 2.000000e+00
      vertex   1.125000e+01 1.033494e+01 0.000000e+00
      vertex   1.097810e+01 1.051662e+01 0.000000e+00
    endloop
  endfacet
  facet normal 6.593458e-01 7.518398e-01 0.000000e+00
    outer loop
      vertex   1.097810e+01 1.051662e+01 2.000000e+00
      vertex   1.097810e+01 1.051662e+01 0.000000e+00
      vertex   1.073223e+01 1.073223e+01 2.000000e+00
    endloop
  endfacet
  facet normal 6.593458e-01 7.518398e-01 0.000000e+00
    outer loop
      vertex   1.073223e+01 1.073223e+01 2.000000e+00
      vertex   1.097810e+01 1.051662e+01 0.000000e+00
      vertex   1.073223e+01 1.073223e+01 0.000000e+00
    endloop
  endfacet
  facet normal 7.518398e-01 6.593458e-01 0.000000e+00
    outer loop
      vertex   1.073223e+01 1.073223e+01 2.000000e+00
      vertex   1.073223e+01 1.073223e+01 0.000000e+00
      vertex   1.051662e+01 1.097810e+01 2.000000e+00
    endloop
  endfacet
  facet normal 7.518398e-01 6.593458e-01 0.000000e+00
    outer loop
      vertex   1.051662e+01 1.097810e+01 2.000000e+00
      vertex   1.073223e+01 1.073223e+01 0.000000e+00
      vertex   1.051662e+01 1.097810e+01 0.000000e+00
    endloop
  endfacet
  facet normal 8.314696e-01 5.555702e-01 0.000000e+00
    outer loop
      vertex   1.051662e+01 1.097810e+01 2.000000e+00
      vertex   1.051662e+01 1.097810e+01 0.000000e+00
      vertex   1.033494e+01 1.125000e+01 2.000000e+00
    endloop
  endfacet
  facet normal 8.314696e-01 5.555702e-01 0.000000e+00
    outer loop
      vertex   1.033494e+01 1.125000e+01 2.000000e+00
      vertex   1.051662e+01 1.097810e+01 0.000000e+00
      vertex   1.033494e+01 1.125000e+01 0.000000e+00
    endloop
  endfacet
  facet normal 8.968727e-01 4.422887e-01 0.000000e+00
    outer loop
      vertex   1.033494e+01 1.125000e+01 2.000000e+00
      vertex   1.033494e+01 1.125000e+01 0.000000e+00
      vertex   1.019030e+01 1.154329e+01 2.000000e+00
    endloop
  endfacet
  facet normal 8.968727e-01 4.422887e-01 0.000000e+00
    outer loop
      vertex   1.019030e+01 1.154329e+01 2.000000e+00
      vertex   1.033494e+01 1.125000e+01 0.000000e+00
      vertex   1.019030e+01 1.154329e+01 0.000000e+00
    endloop
  endfacet
  facet normal 9.469301e-01 3.214395e-01 0.000000e+00
    outer loop
      vertex   1.019030e+01 1.154329e+01 2.000000e+00
      vertex   1.019030e+01 1.154329e+01 0.000000e+00
      vertex   1.008519e+01 1.185295e+01 2.000000e+00
    endloop
  endfacet
  facet normal 9.469301e-01 3.214395e-01 0.000000e+00
    outer loop
      vertex   1.008519e+01 1.185295e+01 2.000000e+00
      vertex   1.019030e+01 1.154329e+01 0.000000e+00
      vertex   1.008519e+01 1.185295e+01 0.000000e+00
    endloop
  endfacet
  facet normal 9.807853e-01 1.950903e-01 0.000000e+00
    outer loop
      vertex   1.008519e+01 1.185295e+01 2.000000e+00
      vertex   1.008519e+01 1.185295e+01 0.000000e+00
      vertex   1.002139e+01 1.217368e+01 2.000000e+00
    endloop
  endfacet
  facet normal 9.807853e-01 1.950903e-01 0.000000e+00
    outer loop
      vertex   1.002139e+01 1.217368e+01 2.000000e+00
      vertex   1.008519e+01 1.185295e+01 0.000000e+00
      vertex   1.002139e+01 1.217368e+01 0.000000e+00
    endloop
  endfacet
  facet normal 0.000000e+00 -0.000000e+00 -1.000000e+00
    outer loop
      vertex   1.002139e+01 1.282632e+01 2.000000e+00
      vertex   1.497861e+01 1.282632e+01 2.000000e+00
      vertex   1.000000e+01 1.250000e+01 2.000000e+00
    endloop
  endfacet
  facet normal 0.000000e+00 0.000000e+00 -1.000000e+00
    outer loop
      vertex   1.000000e+01 1.250000e+01 2.000000e+00
      vertex   1.497861e+01 1.282632e+01 2.000000e+00
      vertex   1.500000e+01 1.250000e+01 2.000000e+00
    endloop
  endfacet
  facet normal 0.000000e+00 0.000000e+00 -1.000000e+00
    outer loop
      vertex   1.000000e+01 1.250000e+01 2.000000e+00
      vertex   1.500000e+01 1.250000e+01 2.000000e+00
      vertex   1.002139e+01 1.217368e+01 2.000000e+00
    endloop
  endfacet
  facet normal 0.000000e+00 0.000000e+00 -1.000000e+00
    outer loop
      vertex   1.002139e+01 1.217368e+01 2.000000e+00
      vertex   1.500000e+01 1.250000e+01 2.000000e+00
      vertex   1.497861e+01 1.217368e+01 2.000000e+00
    endloop
  endfacet
  facet normal 0.000000e+00 0.000000e+00 -1.000000e+00
    outer loop
      vertex   1.002139e+01 1.217368e+01 2.000000e+00
      vertex   1.497861e+01 1.217368e+01 2.000000e+00
      vertex   1.008519e+01 1.185295e+01 2.000000e+00
    endloop
  endfacet
  facet normal 0.000000e+00 0.000000e+00 -1.000000e+00
    outer loop
      vertex   1.008519e+01 1.185295e+01 2.000000e+00
      vertex   1.497861e+01 1.217368e+01 2.000000e+00
      vertex   1.491481e+01 1.185295e+01 2.000000e+00
    endloop
  endfacet
  facet normal 0.000000e+00 0.000000e+00 -1.000000e+00
    outer loop
      vertex   1.008519e+01 1.185295e+01 2.000000e+00
      vertex   1.491481e+01 1.185295e+01 2.000000e+00
      vertex   1.019030e+01 1.154329e+01 2.000000e+00
    endloop
  endfacet
  facet normal 0.000000e+00 0.000000e+00 -1.000000e+00
    outer loop
      vertex   1.019030e+01 1.154329e+01 2.000000e+00
      vertex   1.491481e+01 1.185295e+01 2.000000e+00
      vertex   1.480970e+01 1.154329e+01 2.000000e+00
    endloop
  endfacet
  facet normal 0.000000e+00 0.000000e+00 -1.000000e+00
    outer loop
      vertex   1.019030e+01 1.154329e+01 2.000000e+00
      vertex   1.480970e+01 1.154329e+01 2.000000e+00
      vertex   1.033494e+01 1.125000e+01 2.000000e+00
    endloop
  endfacet
  facet normal 0.000000e+00 0.000000e+00 -1.000000e+00
    outer loop
      vertex   1.033494e+01 1.125000e+01 2.000000e+00
      vertex   1.480970e+01 1.154329e+01 2.000000e+00
      vertex   1.466506e+01 1.125000e+01 2.000000e+00
    endloop
  endfacet
  facet normal 0.000000e+00 0.000000e+00 -1.000000e+00
    outer loop
      vertex   1.033494e+01 1.125000e+01 2.000000e+00
      vertex   1.466506e+01 1.125000e+01 2.000000e+00
      vertex   1.051662e+01 1.097810e+01 2.000000e+00
    endloop
  endfacet
  facet normal 0.000000e+00 0.000000e+00 -1.000000e+00
    outer loop
      vertex   1.051662e+01 1.097810e+01 2.000000e+00
      vertex   1.466506e+01 1.125000e+01 2.000000e+00
      vertex   1.448338e+01 1.097810e+01 2.000000e+00
    endloop
  endfacet
  facet normal 0.000000e+00 0.000000e+00 -1.000000e+00
    outer loop
      vertex   1.051662e+01 1.097810e+01 2.000000e+00
      vertex   1.448338e+01 1.097810e+01 2.000000e+00
      vertex   1.073223e+01 1.073223e+01 2.000000e+00
    endloop
  endfacet
  facet normal 0.000000e+00 0.000000e+00 -1.000000e+00
    outer loop
      vertex   1.073223e+01 1.073223e+01 2.000000e+00
      vertex   1.448338e+01 1.097810e+01 2.000000e+00
      vertex   1.426777e+01 1.073223e+01 2.000000e+00
    endloop
  endfacet
  facet normal 0.000000e+00 0.000000e+00 -1.000000e+00
    outer loop
      vertex   1.073223e+01 1.073223e+01 2.000000e+00
      vertex   1.426777e+01 1.073223e+01 2.000000e+00
      vertex   1.097810e+01 1.051662e+01 2.000000e+00
    endloop
  endfacet
  facet normal 0.000000e+00 0.000000e+00 -1.000000e+00
    outer loop
      vertex   1.097810e+01 1.051662e+01 2.000000e+00
      vertex   1.426777e+01 1.073223e+01 2.000000e+00
      vertex   1.402190e+01 1.051662e+01 2.000000e+00
    endloop
  endfacet
  facet normal 0.000000e+00 0.000000e+00 -1.000000e+00
    outer loop
      vertex   1.097810e+01 1.051662e+01 2.000000e+00
      vertex   1.402190e+01 1.051662e+01 2.000000e+00
      vertex   1.125000e+01 1.033494e+01 2.000000e+00
    endloop
  endfacet
  facet normal 0.000000e+00 0.000000e+00 -1.000000e+00
    outer loop
      vertex   1.125000e+01 1.033494e+01 2.000000e+00
      vertex   1.402190e+01 1.051662e+01 2.000000e+00
      vertex   1.375000e+01 1.033494e+01 2.000000e+00
    endloop
  endfacet
  facet normal 0.000000e+00 0.000000e+00 -1.000000e+00
    outer loop
      vertex   1.125000e+01 1.033494e+01 2.000000e+00
      vertex   1.375000e+01 1.033494e+01 2.000000e+00
      vertex   1.154329e+01 1.019030e+01 2.000000e+00
    endloop
  endfacet
  facet normal 0.000000e+00 0.000000e+00 -1.000000e+00
    outer loop
      vertex   1.154329e+01 1.019030e+01 2.000000e+00
      vertex   1.375000e+01 1.033494e+01 2.000000e+00
      vertex   1.345671e+01 1.019030e+01 2.000000e+00
    endloop
  endfacet
  facet normal 0.000000e+00 0.000000e+00 -1.000000e+00
    outer loop
      vertex   1.154329e+01 1.019030e+01 2.000000e+00
      vertex   1.345671e+01 1.019030e+01 2.000000e+00
      vertex   1.185295e+01 1.008519e+01 2.000000e+00
    endloop
  endfacet
  facet normal 0.000000e+00 0.000000e+00 -1.000000e+00
    outer loop
      vertex   1.185295e+01 1.008519e+01 2.000000e+00
      vertex   1.345671e+01 1.019030e+01 2.000000e+00
      vertex   1.314705e+01 1.008519e+01 2.000000e+00
    endloop
  endfacet
  facet normal 0.000000e+00 0.000000e+00 -1.000000e+00
    outer loop
      vertex   1.185295e+01 1.008519e+01 2.000000e+00
      vertex   1.314705e+01 1.008519e+01 2.000000e+00
      vertex   1.217368e+01 1.002139e+01 2.000000e+00
    endloop
  endfacet
  facet normal 0.000000e+00 0.000000e+00 -1.000000e+00
    outer loop
      vertex   1.217368e+01 1.002139e+01 2.000000e+00
      vertex   1.314705e+01 1.008519e+01 2.000000e+00
      vertex   1.282632e+01 1.002139e+01 2.000000e+00
    endloop
  endfacet
  facet normal 0.000000e+00 0.000000e+00 -1.000000e+00
    outer loop
      vertex   1.217368e+01 1.002139e+01 2.000000e+00
      vertex   1.282632e+01 1.002139e+01 2.000000e+00
      vertex   1.250000e+01 1.000000e+01 2.000000e+00
    endloop
  endfacet
  facet normal 0.000000e+00 0.000000e+00 -1.000000e+00
    outer loop
      vertex   1.497861e+01 1.282632e+01 2.000000e+00
      vertex   1.002139e+01 1.282632e+01 2.000000e+00
      vertex   1.491481e+01 1.314705e+01 2.000000e+00
    endloop
  endfacet
  facet normal -0.000000e+00 0.000000e+00 -1.000000e+00
    outer loop
      vertex   1.491481e+01 1.314705e+01 2.000000e+00
      vertex   1.002139e+01 1.282632e+01 2.000000e+00
      vertex   1.008519e+01 1.314705e+01 2.000000e+00
    endloop
  endfacet
  facet normal 0.000000e+00 0.000000e+00 -1.000000e+00
    outer loop
      vertex   1.491481e+01 1.314705e+01 2.000000e+00
      vertex   1.008519e+01 1.314705e+01 2.000000e+00
      vertex   1.480970e+01 1.345671e+01 2.000000e+00
    endloop
  endfacet
  facet normal -0.000000e+00 0.000000e+00 -1.000000e+00
    outer loop
      vertex   1.480970e+01 1.345671e+01 2.000000e+00
      vertex   1.008519e+01 1.314705e+01 2.000000e+00
      vertex   1.019030e+01 1.345671e+01 2.000000e+00
    endloop
  endfacet
  facet normal 0.000000e+00 0.000000e+00 -1.000000e+00
    outer loop
      vertex   1.480970e+01 1.345671e+01 2.000000e+00
      vertex   1.019030e+01 1.345671e+01 2.000000e+00
      vertex   1.466506e+01 1.375000e+01 2.000000e+00
    endloop
  endfacet
  facet normal -0.000000e+00 0.000000e+00 -1.000000e+00
    outer loop
      vertex   1.466506e+01 1.375000e+01 2.000000e+00
      vertex   1.019030e+01 1.345671e+01 2.000000e+00
      vertex   1.033494e+01 1.375000e+01 2.000000e+00
    endloop
  endfacet
  facet normal 0.000000e+00 0.000000e+00 -1.000000e+00
    outer loop
      vertex   1.466506e+01 1.375000e+01 2.000000e+00
      vertex   1.033494e+01 1.375000e+01 2.000000e+00
      vertex   1.448338e+01 1.402190e+01 2.000000e+00
    endloop
  endfacet
  facet normal -0.000000e+00 0.000000e+00 -1.000000e+00
    outer loop
      vertex   1.448338e+01 1.402190e+01 2.000000e+00
      vertex   1.033494e+01 1.375000e+01 2.000000e+00
      vertex   1.051662e+01 1.402190e+01 2.000000e+00
    endloop
  endfacet
  facet normal 0.000000e+00 0.000000e+00 -1.000000e+00
    outer loop
      vertex   1.448338e+01 1.402190e+01 2.000000e+00
      vertex   1.051662e+01 1.402190e+01 2.000000e+00
      vertex   1.426777e+01 1.426777e+01 2.000000e+00
    endloop
  endfacet
  facet normal -0.000000e+00 0.000000e+00 -1.000000e+00
    outer loop
      vertex   1.426777e+01 1.426777e+01 2.000000e+00
      vertex   1.051662e+01 1.402190e+01 2.000000e+00
      vertex   1.073223e+01 1.426777e+01 2.000000e+00
    endloop
  endfacet
  facet normal 0.000000e+00 0.000000e+00 -1.000000e+00
    outer loop
      vertex   1.426777e+01 1.426777e+01 2.000000e+00
      vertex   1.073223e+01 1.426777e+01 2.000000e+00
      vertex   1.402190e+01 1.448338e+01 2.000000e+00
    endloop
  endfacet
  facet normal -0.000000e+00 0.000000e+00 -1.000000e+00
    outer loop
      vertex   1.402190e+01 1.448338e+01 2.000000e+00
      vertex   1.073223e+01 1.426777e+01 2.000000e+00
      vertex   1.097810e+01 1.448338e+01 2.000000e+00
    endloop
  endfacet
  facet normal 0.000000e+00 0.000000e+00 -1.000000e+00
    outer loop
      vertex   1.402190e+01 1.448338e+01 2.000000e+00
      vertex   1.097810e+01 1.448338e+01 2.000000e+00
      vertex   1.375000e+01 1.466506e+01 2.000000e+00
    endloop
  endfacet
  facet normal -0.000000e+00 0.000000e+00 -1.000000e+00
    outer loop
      vertex   1.375000e+01 1.466506e+01 2.000000e+00
      vertex   1.097810e+01 1.448338e+01 2.000000e+00
      vertex   1.125000e+01 1.466506e+01 2.000000e+00
    endloop
  endfacet
  facet normal 0.000000e+00 0.000000e+00 -1.000000e+00
    outer loop
      vertex   1.375000e+01 1.466506e+01 2.000000e+00
      vertex   1.125000e+01 1.466506e+01 2.000000e+00
      vertex   1.345671e+01 1.480970e+01 2.000000e+00
    endloop
  endfacet
  facet normal -0.000000e+00 0.000000e+00 -1.000000e+00
    outer loop
      vertex   1.345671e+01 1.480970e+01 2.000000e+00
      vertex   1.125000e+01 1.466506e+01 2.000000e+00
      vertex   1.154329e+01 1.480970e+01 2.000000e+00
    endloop
  endfacet
  facet normal 0.000000e+00 0.000000e+00 -1.000000e+00
    outer loop
      vertex   1.345671e+01 1.480970e+01 2.000000e+00
      vertex   1.154329e+01 1.480970e+01 2.000000e+00
      vertex   1.314705e+01 1.491481e+01 2.000000e+00
    endloop
  endfacet
  facet normal -0.000000e+00 0.000000e+00 -1.000000e+00
    outer loop
      vertex   1.314705e+01 1.491481e+01 2.000000e+00
      vertex   1.154329e+01 1.480970e+01 2.000000e+00
      vertex   1.185295e+01 1.491481e+01 2.000000e+00
    endloop
  endfacet
  facet normal 0.000000e+00 0.000000e+00 -1.000000e+00
    outer loop
      vertex   1.314705e+01 1.491481e+01 2.000000e+00
      vertex   1.185295e+01 1.491481e+01 2.000000e+00
      vertex   1.282632e+01 1.497861e+01 2.000000e+00
    endloop
  endfacet
  facet normal -0.000000e+00 0.000000e+00 -1.000000e+00
    outer loop
      vertex   1.282632e+01 1.497861e+01 2.000000e+00
      vertex   1.185295e+01 1.491481e+01 2.000000e+00
      vertex   1.217368e+01 1.497861e+01 2.000000e+00
    endloop
  endfacet
  facet normal 0.000000e+00 0.000000e+00 -1.000000e+00
    outer loop
      vertex   1.282632e+01 1.497861e+01 2.000000e+00
      vertex   1.217368e+01 1.497861e+01 2.000000e+00
      vertex   1.250000e+01 1.500000e+01 2.000000e+00
    endloop
  endfacet
  facet normal 0.000000e+00 -1.000000e+00 0.000000e+00
    outer loop
      vertex   5.000000e-01 5.000000e-01 6.200000e+00
      vertex   5.000000e-01 5.000000e-01 0.000000e+00
      vertex   2.450000e+01 5.000000e-01 6.200000e+00
    endloop
  endfacet
  facet normal 0.000000e+00 -1.000000e+00 -0.000000e+00
    outer loop
      vertex   2.450000e+01 5.000000e-01 6.200000e+00
      vertex   5.000000e-01 5.000000e-01 0.000000e+00
      vertex   2.450000e+01 5.000000e-01 0.000000e+00
    endloop
  endfacet
  facet normal 1.000000e+00 0.000000e+00 0.000000e+00
    outer loop
      vertex   2.450000e+01 5.000000e-01 6.200000e+00
      vertex   2.450000e+01 5.000000e-01 0.000000e+00
      vertex   2.450000e+01 2.450000e+01 6.200000e+00
    endloop
  endfacet
  facet normal 1.000000e+00 0.000000e+00 0.000000e+00
    outer loop
      vertex   2.450000e+01 2.450000e+01 6.200000e+00
      vertex   2.450000e+01 5.000000e-01 0.000000e+00
      vertex   2.450000e+01 2.450000e+01 0.000000e+00
    endloop
  endfacet
  facet normal 0.000000e+00 1.000000e+00 0.000000e+00
    outer loop
      vertex   5.000000e-01 2.450000e+01 6.200000e+00
      vertex   2.450000e+01 2.450000e+01 6.200000e+00
      vertex   5.000000e-01 2.450000e+01 0.000000e+00
    endloop
  endfacet
  facet normal 0.000000e+00 1.000000e+00 0.000000e+00
    outer loop
      vertex   5.000000e-01 2.450000e+01 0.000000e+00
      vertex   2.450000e+01 2.450000e+01 6.200000e+00
      vertex   2.450000e+01 2.450000e+01 0.000000e+00
    endloop
  endfacet
  facet normal -1.000000e+00 0.000000e+00 0.000000e+00
    outer loop
      vertex   5.000000e-01 5.000000e-01 6.200000e+00
      vertex   5.000000e-01 2.450000e+01 6.200000e+00
      vertex   5.000000e-01 5.000000e-01 0.000000e+00
    endloop
  endfacet
  facet normal -1.000000e+00 0.000000e+00 0.000000e+00
    outer loop
      vertex   5.000000e-01 5.000000e-01 0.000000e+00
      vertex   5.000000e-01 2.450000e+01 6.200000e+00
      vertex   5.000000e-01 2.450000e+01 0.000000e+00
    endloop
  endfacet
  facet normal 2.017660e-09 -3.713906e-01 9.284767e-01
    outer loop
      vertex   2.450000e+01 5.000000e-01 6.200000e+00
      vertex   2.250000e+01 2.500000e+00 7.000000e+00
      vertex   5.000000e-01 5.000000e-01 6.200000e+00
    endloop
  endfacet
  facet normal 0.000000e+00 -3.713906e-01 9.284767e-01
    outer loop
      vertex   5.000000e-01 5.000000e-01 6.200000e+00
      vertex   2.250000e+01 2.500000e+00 7.000000e+00
      vertex   2.499999e+00 2.500000e+00 7.000000e+00
    endloop
  endfacet
  facet normal 3.713907e-01 2.594135e-09 9.284767e-01
    outer loop
      vertex   2.450000e+01 5.000000e-01 6.200000e+00
      vertex   2.450000e+01 2.450000e+01 6.200000e+00
      vertex   2.250000e+01 2.500000e+00 7.000000e+00
    endloop
  endfacet
  facet normal 3.713907e-01 1.803928e-15 9.284767e-01
    outer loop
      vertex   2.250000e+01 2.500000e+00 7.000000e+00
      vertex   2.450000e+01 2.450000e+01 6.200000e+00
      vertex   2.250000e+01 2.250000e+01 7.000000e+00
    endloop
  endfacet
  facet normal -3.713907e-01 0.000000e+00 9.284767e-01
    outer loop
      vertex   5.000000e-01 5.000000e-01 6.200000e+00
      vertex   2.499999e+00 2.500000e+00 7.000000e+00
      vertex   5.000000e-01 2.450000e+01 6.200000e+00
    endloop
  endfacet
  facet normal -3.713907e-01 0.000000e+00 9.284767e-01
    outer loop
      vertex   5.000000e-01 2.450000e+01 6.200000e+00
      vertex   2.499999e+00 2.500000e+00 7.000000e+00
      vertex   2.500000e+00 2.250000e+01 7.000000e+00
    endloop
  endfacet
  facet normal 4.611794e-09 3.713907e-01 9.284767e-01
    outer loop
      vertex   2.450000e+01 2.450000e+01 6.200000e+00
      vertex   5.000000e-01 2.450000e+01 6.200000e+00
      vertex   2.250000e+01 2.250000e+01 7.000000e+00
    endloop
  endfacet
  facet normal 0.000000e+00 3.713907e-01 9.284767e-01
    outer loop
      vertex   2.250000e+01 2.250000e+01 7.000000e+00
      vertex   5.000000e-01 2.450000e+01 6.200000e+00
      vertex   2.500000e+00 2.250000e+01 7.000000e+00
    endloop
  endfacet
  facet normal 0.000000e+00 -1.303852e-08 1.000000e+00
    outer loop
      vertex   2.499999e+00 2.500000e+00 7.000000e+00
      vertex   2.250000e+01 2.500000e+00 7.000000e+00
      vertex   2.500000e+00 2.250000e+01 7.000000e+00
    endloop
  endfacet
  facet normal 0.000000e+00 -1.303852e-08 1.000000e+00
    outer loop
      vertex   2.500000e+00 2.250000e+01 7.000000e+00
      vertex   2.250000e+01 2.500000e+00 7.000000e+00
      vertex   2.250000e+01 2.250000e+01 7.000000e+00
    endloop
  endfacet
  facet normal -0.000000e+00 0.000000e+00 -1.000000e+00
    outer loop
      vertex   1.002139e+01 1.217368e+01 0.000000e+00
      vertex   5.000000e-01 5.000000e-01 0.000000e+00
      vertex   1.000000e+01 1.250000e+01 0.000000e+00
    endloop
  endfacet
  facet normal -0.000000e+00 0.000000e+00 -1.000000e+00
    outer loop
      vertex   1.000000e+01 1.250000e+01 0.000000e+00
      vertex   5.000000e-01 5.000000e-01 0.000000e+00
      vertex   5.000000e-01 2.450000e+01 0.000000e+00
    endloop
  endfacet
  facet normal 0.000000e+00 0.000000e+00 -1.000000e+00
    outer loop
      vertex   1.000000e+01 1.250000e+01 0.000000e+00
      vertex   5.000000e-01 2.450000e+01 0.000000e+00
      vertex   1.002139e+01 1.282632e+01 0.000000e+00
    endloop
  endfacet
  facet normal 0.000000e+00 0.000000e+00 -1.000000e+00
    outer loop
      vertex   1.002139e+01 1.282632e+01 0.000000e+00
      vertex   5.000000e-01 2.450000e+01 0.000000e+00
      vertex   1.008519e+01 1.314705e+01 0.000000e+00
    endloop
  endfacet
  facet normal 0.000000e+00 0.000000e+00 -1.000000e+00
    outer loop
      vertex   1.008519e+01 1.314705e+01 0.000000e+00
      vertex   5.000000e-01 2.450000e+01 0.000000e+00
      vertex   1.019030e+01 1.345671e+01 0.000000e+00
    endloop
  endfacet
  facet normal 0.000000e+00 0.000000e+00 -1.000000e+00
    outer loop
      vertex   1.019030e+01 1.345671e+01 0.000000e+00
      vertex   5.000000e-01 2.450000e+01 0.000000e+00
      vertex   1.033494e+01 1.375000e+01 0.000000e+00
    endloop
  endfacet
  facet normal 0.000000e+00 0.000000e+00 -1.000000e+00
    outer loop
      vertex   1.033494e+01 1.375000e+01 0.000000e+00
      vertex   5.000000e-01 2.450000e+01 0.000000e+00
      vertex   1.051662e+01 1.402190e+01 0.000000e+00
    endloop
  endfacet
  facet normal 0.000000e+00 0.000000e+00 -1.000000e+00
    outer loop
      vertex   1.051662e+01 1.402190e+01 0.000000e+00
      vertex   5.000000e-01 2.450000e+01 0.000000e+00
      vertex   1.073223e+01 1.426777e+01 0.000000e+00
    endloop
  endfacet
  facet normal 0.000000e+00 0.000000e+00 -1.000000e+00
    outer loop
      vertex   1.073223e+01 1.426777e+01 0.000000e+00
      vertex   5.000000e-01 2.450000e+01 0.000000e+00
      vertex   1.097810e+01 1.448338e+01 0.000000e+00
    endloop
  endfacet
  facet normal 0.000000e+00 0.000000e+00 -1.000000e+00
    outer loop
      vertex   1.097810e+01 1.448338e+01 0.000000e+00
      vertex   5.000000e-01 2.450000e+01 0.000000e+00
      vertex   1.125000e+01 1.466506e+01 0.000000e+00
    endloop
  endfacet
  facet normal 0.000000e+00 0.000000e+00 -1.000000e+00
    outer loop
      vertex   1.125000e+01 1.466506e+01 0.000000e+00
      vertex   5.000000e-01 2.450000e+01 0.000000e+00
      vertex   1.154329e+01 1.480970e+01 0.000000e+00
    endloop
  endfacet
  facet normal 0.000000e+00 0.000000e+00 -1.000000e+00
    outer loop
      vertex   1.154329e+01 1.480970e+01 0.000000e+00
      vertex   5.000000e-01 2.450000e+01 0.000000e+00
      vertex   1.185295e+01 1.491481e+01 0.000000e+00
    endloop
  endfacet
  facet normal 0.000000e+00 0.000000e+00 -1.000000e+00
    outer loop
      vertex   1.185295e+01 1.491481e+01 0.000000e+00
      vertex   5.000000e-01 2.450000e+01 0.000000e+00
      vertex   1.217368e+01 1.497861e+01 0.000000e+00
    endloop
  endfacet
  facet normal 0.000000e+00 0.000000e+00 -1.000000e+00
    outer loop
      vertex   1.217368e+01 1.497861e+01 0.000000e+00
      vertex   5.000000e-01 2.450000e+01 0.000000e+00
      vertex   1.250000e+01 1.500000e+01 0.000000e+00
    endloop
  endfacet
  facet normal 0.000000e+00 0.000000e+00 -1.000000e+00
    outer loop
      vertex   1.250000e+01 1.500000e+01 0.000000e+00
      vertex   5.000000e-01 2.450000e+01 0.000000e+00
      vertex   2.450000e+01 2.450000e+01 0.000000e+00
    endloop
  endfacet
  facet normal 0.000000e+00 0.000000e+00 -1.000000e+00
    outer loop
      vertex   1.250000e+01 1.500000e+01 0.000000e+00
      vertex   2.450000e+01 2.450000e+01 0.000000e+00
      vertex   1.282632e+01 1.497861e+01 0.000000e+00
    endloop
  endfacet
  facet normal 0.000000e+00 0.000000e+00 -1.000000e+00
    outer loop
      vertex   1.282632e+01 1.497861e+01 0.000000e+00
      vertex   2.450000e+01 2.450000e+01 0.000000e+00
      vertex   1.314705e+01 1.491481e+01 0.000000e+00
    endloop
  endfacet
  facet normal 0.000000e+00 0.000000e+00 -1.000000e+00
    outer loop
      vertex   1.314705e+01 1.491481e+01 0.000000e+00
      vertex   2.450000e+01 2.450000e+01 0.000000e+00
      vertex   1.345671e+01 1.480970e+01 0.000000e+00
    endloop
  endfacet
  facet normal 0.000000e+00 0.000000e+00 -1.000000e+00
    outer loop
      vertex   1.345671e+01 1.480970e+01 0.000000e+00
      vertex   2.450000e+01 2.450000e+01 0.000000e+00
      vertex   1.375000e+01 1.466506e+01 0.000000e+00
    endloop
  endfacet
  facet normal 0.000000e+00 0.000000e+00 -1.000000e+00
    outer loop
      vertex   1.375000e+01 1.466506e+01 0.000000e+00
      vertex   2.450000e+01 2.450000e+01 0.000000e+00
      vertex   1.402190e+01 1.448338e+01 0.000000e+00
    endloop
  endfacet
  facet normal 0.000000e+00 0.000000e+00 -1.000000e+00
    outer loop
      vertex   1.402190e+01 1.448338e+01 0.000000e+00
      vertex   2.450000e+01 2.450000e+01 0.000000e+00
      vertex   1.426777e+01 1.426777e+01 0.000000e+00
    endloop
  endfacet
  facet normal 0.000000e+00 0.000000e+00 -1.000000e+00
    outer loop
      vertex   1.426777e+01 1.426777e+01 0.000000e+00
      vertex   2.450000e+01 2.450000e+01 0.000000e+00
      vertex   1.448338e+01 1.402190e+01 0.000000e+00
    endloop
  endfacet
  facet normal 0.000000e+00 0.000000e+00 -1.000000e+00
    outer loop
      vertex   1.448338e+01 1.402190e+01 0.000000e+00
      vertex   2.450000e+01 2.450000e+01 0.000000e+00
      vertex   1.466506e+01 1.375000e+01 0.000000e+00
    endloop
  endfacet
  facet normal 0.000000e+00 0.000000e+00 -1.000000e+00
    outer loop
      vertex   1.466506e+01 1.375000e+01 0.000000e+00
      vertex   2.450000e+01 2.450000e+01 0.000000e+00
      vertex   1.480970e+01 1.345671e+01 0.000000e+00
    endloop
  endfacet
  facet normal 0.000000e+00 0.000000e+00 -1.000000e+00
    outer loop
      vertex   1.480970e+01 1.345671e+01 0.000000e+00
      vertex   2.450000e+01 2.450000e+01 0.000000e+00
      vertex   1.491481e+01 1.314705e+01 0.000000e+00
    endloop
  endfacet
  facet normal 0.000000e+00 0.000000e+00 -1.000000e+00
    outer loop
      vertex   1.491481e+01 1.314705e+01 0.000000e+00
      vertex   2.450000e+01 2.450000e+01 0.000000e+00
      vertex   1.497861e+01 1.282632e+01 0.000000e+00
    endloop
  endfacet
  facet normal 0.000000e+00 0.000000e+00 -1.000000e+00
    outer loop
      vertex   1.497861e+01 1.282632e+01 0.000000e+00
      vertex   2.450000e+01 2.450000e+01 0.000000e+00
      vertex   1.500000e+01 1.250000e+01 0.000000e+00
    endloop
  endfacet
  facet normal 0.000000e+00 0.000000e+00 -1.000000e+00
    outer loop
      vertex   1.500000e+01 1.250000e+01 0.000000e+00
      vertex   2.450000e+01 2.450000e+01 0.000000e+00
      vertex   2.450000e+01 5.000000e-01 0.000000e+00
    endloop
  endfacet
  facet normal 0.000000e+00 -0.000000e+00 -1.000000e+00
    outer loop
      vertex   1.500000e+01 1.250000e+01 0.000000e+00
      vertex   2.450000e+01 5.000000e-01 0.000000e+00
      vertex   1.497861e+01 1.217368e+01 0.000000e+00
    endloop
  endfacet
  facet normal 0.000000e+00 -0.000000e+00 -1.000000e+00
    outer loop
      vertex   1.497861e+01 1.217368e+01 0.000000e+00
      vertex   2.450000e+01 5.000000e-01 0.000000e+00
      vertex   1.491481e+01 1.185295e+01 0.000000e+00
    endloop
  endfacet
  facet normal 0.000000e+00 -0.000000e+00 -1.000000e+00
    outer loop
      vertex   1.491481e+01 1.185295e+01 0.000000e+00
      vertex   2.450000e+01 5.000000e-01 0.000000e+00
      vertex   1.480970e+01 1.154329e+01 0.000000e+00
    endloop
  endfacet
  facet normal 0.000000e+00 -0.000000e+00 -1.000000e+00
    outer loop
      vertex   1.480970e+01 1.154329e+01 0.000000e+00
      vertex   2.450000e+01 5.000000e-01 0.000000e+00
      vertex   1.466506e+01 1.125000e+01 0.000000e+00
    endloop
  endfacet
  facet normal 0.000000e+00 -0.000000e+00 -1.000000e+00
    outer loop
      vertex   1.466506e+01 1.125000e+01 0.000000e+00
      vertex   2.450000e+01 5.000000e-01 0.000000e+00
      vertex   1.448338e+01 1.097810e+01 0.000000e+00
    endloop
  endfacet
  facet normal 0.000000e+00 -0.000000e+00 -1.000000e+00
    outer loop
      vertex   1.448338e+01 1.097810e+01 0.000000e+00
      vertex   2.450000e+01 5.000000e-01 0.000000e+00
      vertex   1.426777e+01 1.073223e+01 0.000000e+00
    endloop
  endfacet
  facet normal 0.000000e+00 -0.000000e+00 -1.000000e+00
    outer loop
      vertex   1.426777e+01 1.073223e+01 0.000000e+00
      vertex   2.450000e+01 5.000000e-01 0.000000e+00
      vertex   1.402190e+01 1.051662e+01 0.000000e+00
    endloop
  endfacet
  facet normal 0.000000e+00 -0.000000e+00 -1.000000e+00
    outer loop
      vertex   1.402190e+01 1.051662e+01 0.000000e+00
      vertex   2.450000e+01 5.000000e-01 0.000000e+00
      vertex   1.375000e+01 1.033494e+01 0.000000e+00
    endloop
  endfacet
  facet normal 0.000000e+00 -0.000000e+00 -1.000000e+00
    outer loop
      vertex   1.375000e+01 1.033494e+01 0.000000e+00
      vertex   2.450000e+01 5.000000e-01 0.000000e+00
      vertex   1.345671e+01 1.019030e+01 0.000000e+00
    endloop
  endfacet
  facet normal 0.000000e+00 -0.000000e+00 -1.000000e+00
    outer loop
      vertex   1.345671e+01 1.019030e+01 0.000000e+00
      vertex   2.450000e+01 5.000000e-01 0.000000e+00
      vertex   1.314705e+01 1.008519e+01 0.000000e+00
    endloop
  endfacet
  facet normal 0.000000e+00 -0.000000e+00 -1.000000e+00
    outer loop
      vertex   1.314705e+01 1.008519e+01 0.000000e+00
      vertex   2.450000e+01 5.000000e-01 0.000000e+00
      vertex   1.282632e+01 1.002139e+01 0.000000e+00
    endloop
  endfacet
  facet normal 0.000000e+00 -0.000000e+00 -1.000000e+00
    outer loop
      vertex   1.282632e+01 1.002139e+01 0.000000e+00
      vertex   2.450000e+01 5.000000e-01 0.000000e+00
      vertex   1.250000e+01 1.000000e+01 0.000000e+00
    endloop
  endfacet
  facet normal 0.000000e+00 -0.000000e+00 -1.000000e+00
    outer loop
      vertex   1.250000e+01 1.000000e+01 0.000000e+00
      vertex   2.450000e+01 5.000000e-01 0.000000e+00
      vertex   5.000000e-01 5.000000e-01 0.000000e+00
    endloop
  endfacet
  facet normal -0.000000e+00 0.000000e+00 -1.000000e+00
    outer loop
      vertex   1.250000e+01 1.000000e+01 0.000000e+00
      vertex   5.000000e-01 5.000000e-01 0.000000e+00
      vertex   1.217368e+01 1.002139e+01 0.000000e+00
    endloop
  endfacet
  facet normal -0.000000e+00 0.000000e+00 -1.000000e+00
    outer loop
      vertex   1.217368e+01 1.002139e+01 0.000000e+00
      vertex   5.000000e-01 5.000000e-01 0.000000e+00
      vertex   1.185295e+01 1.008519e+01 0.000000e+00
    endloop
  endfacet
  facet normal -0.000000e+00 0.000000e+00 -1.000000e+00
    outer loop
      vertex   1.185295e+01 1.008519e+01 0.000000e+00
      vertex   5.000000e-01 5.000000e-01 0.000000e+00
      vertex   1.154329e+01 1.019030e+01 0.000000e+00
    endloop
  endfacet
  facet normal -0.000000e+00 0.000000e+00 -1.000000e+00
    outer loop
      vertex   1.154329e+01 1.019030e+01 0.000000e+00
      vertex   5.000000e-01 5.000000e-01 0.000000e+00
      vertex   1.125000e+01 1.033494e+01 0.000000e+00
    endloop
  endfacet
  facet normal -0.000000e+00 0.000000e+00 -1.000000e+00
    outer loop
      vertex   1.125000e+01 1.033494e+01 0.000000e+00
      vertex   5.000000e-01 5.000000e-01 0.000000e+00
      vertex   1.097810e+01 1.051662e+01 0.000000e+00
    endloop
  endfacet
  facet normal -0.000000e+00 0.000000e+00 -1.000000e+00
    outer loop
      vertex   1.097810e+01 1.051662e+01 0.000000e+00
      vertex   5.000000e-01 5.000000e-01 0.000000e+00
      vertex   1.073223e+01 1.073223e+01 0.000000e+00
    endloop
  endfacet
  facet normal -0.000000e+00 0.000000e+00 -1.000000e+00
    outer loop
      vertex   1.073223e+01 1.073223e+01 0.000000e+00
      vertex   5.000000e-01 5.000000e-01 0.000000e+00
      vertex   1.051662e+01 1.097810e+01 0.000000e+00
    endloop
  endfacet
  facet normal -0.000000e+00 0.000000e+00 -1.000000e+00
    outer loop
      vertex   1.051662e+01 1.097810e+01 0.000000e+00
      vertex   5.000000e-01 5.000000e-01 0.000000e+00
      vertex   1.033494e+01 1.125000e+01 0.000000e+00
    endloop
  endfacet
  facet normal -0.000000e+00 0.000000e+00 -1.000000e+00
    outer loop
      vertex   1.033494e+01 1.125000e+01 0.000000e+00
      vertex   5.000000e-01 5.000000e-01 0.000000e+00
      vertex   1.019030e+01 1.154329e+01 0.000000e+00
    endloop
  endfacet
  facet normal -0.000000e+00 0.000000e+00 -1.000000e+00
    outer loop
      vertex   1.019030e+01 1.154329e+01 0.000000e+00
      vertex   5.000000e-01 5.000000e-01 0.000000e+00
      vertex   1.008519e+01 1.185295e+01 0.000000e+00
    endloop
  endfacet
  facet normal -0.000000e+00 0.000000e+00 -1.000000e+00
    outer loop
      vertex   1.008519e+01 1.185295e+01 0.000000e+00
      vertex   5.000000e-01 5.000000e-01 0.000000e+00
      vertex   1.002139e+01 1.217368e+01 0.000000e+00
    endloop
  endfacet
endsolid
